<svg width="128" height="128" viewBox="0 0 128 128" fill="none" xmlns="http://www.w3.org/2000/svg">
<path d="M40.981 48.8291C40.4577 44.1192 44.1445 40 48.8835 40C52.9349 40 56.3385 43.0463 56.7859 47.073L59.5583 72.0245C59.8519 74.6667 59.8519 77.3333 59.5583 79.9755L56.7859 104.927C56.3385 108.954 52.9349 112 48.8835 112C44.1445 112 40.4577 107.881 40.981 103.171L43.6382 79.2563C43.8787 77.0921 43.8787 74.9079 43.6382 72.7437L40.981 48.8291Z" fill="#33AA55"/>
<circle cx="47" cy="25" r="8" fill="#33AA55" stroke="#33AA55" stroke-width="2"/>
<path d="M80.1162 111C76.5744 111 73.5991 108.337 73.208 104.816L70.4355 79.8652C70.1501 77.2964 70.1501 74.7036 70.4355 72.1348L73.208 47.1836C73.5991 43.6635 76.5744 41.0002 80.1162 41C84.2591 41 87.4829 44.6012 87.0254 48.7188L84.3682 72.6328C84.1195 74.8704 84.1195 77.1296 84.3682 79.3672L87.0254 103.281C87.4829 107.399 84.2591 111 80.1162 111Z" stroke="#33AA55" stroke-width="2"/>
<circle cx="82" cy="25" r="8" stroke="#33AA55" stroke-width="2"/>
<path d="M80.1162 110C77.084 110 74.537 107.72 74.2021 104.706L71.4297 79.7549C71.1524 77.2594 71.1524 74.7406 71.4297 72.2451L74.2021 47.2939C74.537 44.2802 77.084 42.0002 80.1162 42C83.6631 42 86.4229 45.0832 86.0313 48.6084L83.374 72.5225C83.1172 74.8335 83.1172 77.1665 83.374 79.4775L86.0312 103.392C86.4229 106.917 83.6631 110 80.1162 110Z" stroke="#33AA55" stroke-width="4"/>
<circle cx="82" cy="25" r="6" stroke="#33AA55" stroke-width="2"/>
</svg>
