<svg width="512" height="256" viewBox="0 0 512 256" fill="none" xmlns="http://www.w3.org/2000/svg">
<path d="M164.797 78.76C166.594 78.76 168.284 79.242 169.539 80.4973C170.773 81.731 171.278 83.3597 171.278 85.1116C171.278 86.9088 170.795 88.5981 169.539 89.8537C168.284 91.1094 166.594 91.592 164.797 91.592H125.07V119.08H162.11C163.871 119.08 165.528 119.544 166.776 120.745L167.021 120.979C168.201 122.171 168.717 123.73 168.717 125.432C168.717 127.254 168.175 128.937 166.851 130.173L166.852 130.174C165.596 131.43 163.907 131.912 162.11 131.912H125.07V166.136C125.07 168.289 124.622 170.277 123.381 171.746C122.086 173.28 120.232 173.896 118.205 173.896C116.063 173.896 114.12 173.328 112.63 171.962L112.566 171.904L112.507 171.839C111.127 170.333 110.573 168.335 110.573 166.136V86.5198C110.574 84.3342 111.122 82.328 112.568 80.8821C114.069 79.3811 116.09 78.76 118.333 78.76H164.797Z" fill="black" stroke="black" stroke-width="4"/>
<rect x="176" y="104" width="18" height="72" rx="9" fill="black"/>
<rect x="176" y="122" width="18" height="40" rx="9" transform="rotate(-90 176 122)" fill="black"/>
<mask id="path-4-outside-1_175_2911" maskUnits="userSpaceOnUse" x="280" y="75" width="133" height="101" fill="black">
<rect fill="white" x="280" y="75" width="133" height="101"/>
<path d="M289.973 171.896C288.266 171.896 286.986 171.427 286.133 170.488C285.28 169.549 284.853 168.227 284.853 166.52V113.144C284.853 111.437 285.28 110.157 286.133 109.304C286.986 108.365 288.224 107.896 289.845 107.896C291.466 107.896 292.704 108.365 293.557 109.304C294.496 110.157 294.965 111.437 294.965 113.144V124.152L293.557 122.616C295.349 117.667 298.25 113.955 302.261 111.48C306.357 108.92 311.05 107.64 316.341 107.64C321.29 107.64 325.386 108.536 328.629 110.328C331.957 112.12 334.432 114.851 336.053 118.52C337.674 122.104 338.485 126.669 338.485 132.216V166.52C338.485 168.227 338.016 169.549 337.077 170.488C336.224 171.427 334.986 171.896 333.365 171.896C331.658 171.896 330.336 171.427 329.397 170.488C328.544 169.549 328.117 168.227 328.117 166.52V132.856C328.117 127.053 326.965 122.829 324.661 120.184C322.442 117.453 318.858 116.088 313.909 116.088C308.192 116.088 303.626 117.88 300.213 121.464C296.885 124.963 295.221 129.656 295.221 135.544V166.52C295.221 170.104 293.472 171.896 289.973 171.896ZM362.723 171.896C361.016 171.896 359.736 171.427 358.883 170.488C358.03 169.549 357.603 168.227 357.603 166.52V85.112C357.603 83.4053 358.03 82.1253 358.883 81.272C359.736 80.3333 361.016 79.864 362.723 79.864C364.344 79.864 365.624 80.3333 366.563 81.272C367.502 82.1253 367.971 83.4053 367.971 85.112V136.44H368.227L394.467 111.352C395.662 110.243 396.686 109.389 397.539 108.792C398.478 108.195 399.715 107.896 401.251 107.896C402.616 107.896 403.683 108.28 404.451 109.048C405.219 109.731 405.56 110.627 405.475 111.736C405.475 112.76 404.963 113.869 403.939 115.064L376.035 141.56V135.928L406.371 164.472C407.566 165.667 408.163 166.819 408.163 167.928C408.163 169.037 407.736 169.976 406.883 170.744C406.115 171.512 405.091 171.896 403.811 171.896C402.275 171.896 401.038 171.597 400.099 171C399.16 170.317 398.008 169.336 396.643 168.056L368.227 141.816H367.971V166.52C367.971 170.104 366.222 171.896 362.723 171.896Z"/>
</mask>
<path d="M286.133 109.304L288.961 112.132L289.029 112.065L289.093 111.995L286.133 109.304ZM293.557 109.304L290.597 111.995L290.725 112.136L290.866 112.264L293.557 109.304ZM294.965 124.152L292.016 126.855L298.965 134.435V124.152H294.965ZM293.557 122.616L289.796 121.254L288.971 123.533L290.608 125.319L293.557 122.616ZM302.261 111.48L304.361 114.884L304.371 114.878L304.381 114.872L302.261 111.48ZM328.629 110.328L326.694 113.829L326.713 113.84L326.733 113.85L328.629 110.328ZM336.053 118.52L332.394 120.137L332.401 120.153L332.409 120.169L336.053 118.52ZM337.077 170.488L334.249 167.66L334.181 167.727L334.117 167.797L337.077 170.488ZM329.397 170.488L326.437 173.179L326.501 173.249L326.569 173.316L329.397 170.488ZM324.661 120.184L321.557 122.706L321.6 122.759L321.645 122.811L324.661 120.184ZM300.213 121.464L297.316 118.705L297.315 118.707L300.213 121.464ZM289.973 171.896V167.896C289.476 167.896 289.214 167.826 289.11 167.788C289.029 167.759 289.053 167.754 289.093 167.797L286.133 170.488L283.173 173.179C285.021 175.211 287.546 175.896 289.973 175.896V171.896ZM286.133 170.488L289.093 167.797C289.085 167.789 289.035 167.735 288.98 167.564C288.92 167.378 288.853 167.048 288.853 166.52H284.853H280.853C280.853 168.873 281.448 171.281 283.173 173.179L286.133 170.488ZM284.853 166.52H288.853V113.144H284.853H280.853V166.52H284.853ZM284.853 113.144H288.853C288.853 112.612 288.921 112.309 288.968 112.169C289.008 112.048 289.023 112.07 288.961 112.132L286.133 109.304L283.305 106.476C281.437 108.344 280.853 110.821 280.853 113.144H284.853ZM286.133 109.304L289.093 111.995C289.093 111.994 289.092 111.996 289.088 111.999C289.085 112.002 289.082 112.004 289.079 112.006C289.074 112.01 289.083 112.002 289.12 111.988C289.196 111.959 289.413 111.896 289.845 111.896V107.896V103.896C287.43 103.896 284.983 104.622 283.173 106.613L286.133 109.304ZM289.845 107.896V111.896C290.277 111.896 290.494 111.959 290.57 111.988C290.607 112.002 290.616 112.01 290.611 112.006C290.608 112.004 290.605 112.002 290.602 111.999C290.598 111.996 290.597 111.994 290.597 111.995L293.557 109.304L296.517 106.613C294.707 104.622 292.26 103.896 289.845 103.896V107.896ZM293.557 109.304L290.866 112.264C290.823 112.224 290.828 112.2 290.857 112.281C290.895 112.385 290.965 112.647 290.965 113.144H294.965H298.965C298.965 110.717 298.28 108.192 296.248 106.344L293.557 109.304ZM294.965 113.144H290.965V124.152H294.965H298.965V113.144H294.965ZM294.965 124.152L297.914 121.449L296.506 119.913L293.557 122.616L290.608 125.319L292.016 126.855L294.965 124.152ZM293.557 122.616L297.318 123.978C298.841 119.772 301.209 116.829 304.361 114.884L302.261 111.48L300.161 108.076C295.292 111.08 291.857 115.561 289.796 121.254L293.557 122.616ZM302.261 111.48L304.381 114.872C307.781 112.747 311.726 111.64 316.341 111.64V107.64V103.64C310.375 103.64 304.933 105.093 300.141 108.088L302.261 111.48ZM316.341 107.64V111.64C320.832 111.64 324.21 112.456 326.694 113.829L328.629 110.328L330.564 106.827C326.563 104.616 321.748 103.64 316.341 103.64V107.64ZM328.629 110.328L326.733 113.85C329.228 115.193 331.109 117.227 332.394 120.137L336.053 118.52L339.712 116.903C337.755 112.474 334.686 109.047 330.525 106.806L328.629 110.328ZM336.053 118.52L332.409 120.169C333.72 123.068 334.485 127.021 334.485 132.216H338.485H342.485C342.485 126.318 341.629 121.14 339.697 116.871L336.053 118.52ZM338.485 132.216H334.485V166.52H338.485H342.485V132.216H338.485ZM338.485 166.52H334.485C334.485 167.013 334.417 167.304 334.363 167.454C334.316 167.588 334.273 167.635 334.249 167.66L337.077 170.488L339.905 173.316C341.792 171.43 342.485 168.97 342.485 166.52H338.485ZM337.077 170.488L334.117 167.797C334.117 167.798 334.118 167.796 334.122 167.793C334.125 167.79 334.128 167.788 334.131 167.786C334.136 167.782 334.127 167.79 334.09 167.804C334.014 167.833 333.797 167.896 333.365 167.896V171.896V175.896C335.78 175.896 338.227 175.17 340.037 173.179L337.077 170.488ZM333.365 171.896V167.896C332.872 167.896 332.581 167.828 332.431 167.774C332.297 167.727 332.25 167.684 332.225 167.66L329.397 170.488L326.569 173.316C328.455 175.203 330.915 175.896 333.365 175.896V171.896ZM329.397 170.488L332.357 167.797C332.349 167.789 332.299 167.735 332.244 167.564C332.184 167.378 332.117 167.048 332.117 166.52H328.117H324.117C324.117 168.873 324.712 171.281 326.437 173.179L329.397 170.488ZM328.117 166.52H332.117V132.856H328.117H324.117V166.52H328.117ZM328.117 132.856H332.117C332.117 126.675 330.917 121.277 327.677 117.557L324.661 120.184L321.645 122.811C323.013 124.382 324.117 127.431 324.117 132.856H328.117ZM324.661 120.184L327.765 117.662C324.514 113.66 319.549 112.088 313.909 112.088V116.088V120.088C318.167 120.088 320.371 121.247 321.557 122.706L324.661 120.184ZM313.909 116.088V112.088C307.282 112.088 301.604 114.204 297.316 118.705L300.213 121.464L303.11 124.223C305.649 121.556 309.101 120.088 313.909 120.088V116.088ZM300.213 121.464L297.315 118.707C293.131 123.106 291.221 128.868 291.221 135.544H295.221H299.221C299.221 130.444 300.639 126.82 303.111 124.221L300.213 121.464ZM295.221 135.544H291.221V166.52H295.221H299.221V135.544H295.221ZM295.221 166.52H291.221C291.221 167.719 290.928 167.88 291.047 167.758C291.183 167.618 291.081 167.896 289.973 167.896V171.896V175.896C292.364 175.896 294.886 175.278 296.771 173.346C298.639 171.432 299.221 168.905 299.221 166.52H295.221ZM358.883 81.272L361.711 84.1004L361.779 84.0331L361.843 83.9627L358.883 81.272ZM366.563 81.272L363.735 84.1004L363.802 84.1677L363.872 84.2318L366.563 81.272ZM367.971 136.44H363.971V140.44H367.971V136.44ZM368.227 136.44V140.44H369.832L370.991 139.331L368.227 136.44ZM394.467 111.352L391.745 108.421L391.724 108.441L391.703 108.461L394.467 111.352ZM397.539 108.792L395.392 105.417L395.317 105.465L395.245 105.515L397.539 108.792ZM404.451 109.048L401.623 111.876L401.706 111.96L401.794 112.038L404.451 109.048ZM405.475 111.736L401.487 111.429L401.475 111.582V111.736H405.475ZM403.939 115.064L406.693 117.965L406.842 117.823L406.976 117.667L403.939 115.064ZM376.035 141.56H372.035V150.874L378.789 144.461L376.035 141.56ZM376.035 135.928L378.776 133.015L372.035 126.672V135.928H376.035ZM406.371 164.472L409.199 161.644L409.156 161.601L409.112 161.559L406.371 164.472ZM406.883 170.744L404.207 167.771L404.129 167.841L404.055 167.916L406.883 170.744ZM400.099 171L397.746 174.235L397.847 174.308L397.952 174.375L400.099 171ZM396.643 168.056L399.379 165.138L399.368 165.128L399.357 165.117L396.643 168.056ZM368.227 141.816L370.941 138.877L369.791 137.816H368.227V141.816ZM367.971 141.816V137.816H363.971V141.816H367.971ZM362.723 171.896V167.896C362.226 167.896 361.964 167.826 361.86 167.788C361.779 167.759 361.803 167.754 361.843 167.797L358.883 170.488L355.923 173.179C357.771 175.211 360.296 175.896 362.723 175.896V171.896ZM358.883 170.488L361.843 167.797C361.835 167.789 361.785 167.735 361.73 167.564C361.67 167.378 361.603 167.048 361.603 166.52H357.603H353.603C353.603 168.873 354.198 171.281 355.923 173.179L358.883 170.488ZM357.603 166.52H361.603V85.112H357.603H353.603V166.52H357.603ZM357.603 85.112H361.603C361.603 84.5801 361.671 84.2775 361.718 84.1369C361.758 84.0157 361.773 84.0384 361.711 84.1004L358.883 81.272L356.055 78.4436C354.187 80.3116 353.603 82.7888 353.603 85.112H357.603ZM358.883 81.272L361.843 83.9627C361.803 84.006 361.779 84.0011 361.86 83.9715C361.964 83.9335 362.226 83.864 362.723 83.864V79.864V75.864C360.296 75.864 357.771 76.5489 355.923 78.5813L358.883 81.272ZM362.723 79.864V83.864C363.533 83.864 363.706 84.0719 363.735 84.1004L366.563 81.272L369.391 78.4436C367.543 76.5948 365.155 75.864 362.723 75.864V79.864ZM366.563 81.272L363.872 84.2318C363.829 84.1924 363.834 84.1683 363.863 84.249C363.901 84.3526 363.971 84.6149 363.971 85.112H367.971H371.971C371.971 82.6853 371.286 80.1599 369.254 78.3122L366.563 81.272ZM367.971 85.112H363.971V136.44H367.971H371.971V85.112H367.971ZM367.971 136.44V140.44H368.227V136.44V132.44H367.971V136.44ZM368.227 136.44L370.991 139.331L397.231 114.243L394.467 111.352L391.703 108.461L365.463 133.549L368.227 136.44ZM394.467 111.352L397.189 114.283C398.315 113.237 399.189 112.52 399.833 112.069L397.539 108.792L395.245 105.515C394.182 106.259 393.008 107.248 391.745 108.421L394.467 111.352ZM397.539 108.792L399.687 112.167C399.783 112.105 400.197 111.896 401.251 111.896V107.896V103.896C399.233 103.896 397.172 104.284 395.392 105.417L397.539 108.792ZM401.251 107.896V111.896C401.563 111.896 401.7 111.94 401.72 111.948C401.729 111.951 401.717 111.947 401.692 111.932C401.667 111.916 401.642 111.896 401.623 111.876L404.451 109.048L407.279 106.22C405.58 104.52 403.39 103.896 401.251 103.896V107.896ZM404.451 109.048L401.794 112.038C401.732 111.983 401.62 111.852 401.545 111.656C401.475 111.471 401.491 111.369 401.487 111.429L405.475 111.736L409.463 112.043C409.635 109.806 408.897 107.648 407.108 106.058L404.451 109.048ZM405.475 111.736H401.475C401.475 111.568 401.519 111.531 401.459 111.66C401.395 111.799 401.239 112.068 400.902 112.461L403.939 115.064L406.976 117.667C408.302 116.12 409.475 114.112 409.475 111.736H405.475ZM403.939 115.064L401.185 112.163L373.281 138.659L376.035 141.56L378.789 144.461L406.693 117.965L403.939 115.064ZM376.035 141.56H380.035V135.928H376.035H372.035V141.56H376.035ZM376.035 135.928L373.294 138.841L403.63 167.385L406.371 164.472L409.112 161.559L378.776 133.015L376.035 135.928ZM406.371 164.472L403.543 167.3C403.932 167.69 404.101 167.952 404.164 168.073C404.218 168.177 404.163 168.115 404.163 167.928H408.163H412.163C412.163 165.315 410.759 163.203 409.199 161.644L406.371 164.472ZM408.163 167.928H404.163C404.163 167.948 404.161 167.94 404.167 167.912C404.173 167.883 404.184 167.847 404.202 167.809C404.219 167.771 404.235 167.746 404.243 167.736C404.25 167.727 404.242 167.739 404.207 167.771L406.883 170.744L409.559 173.717C411.222 172.221 412.163 170.215 412.163 167.928H408.163ZM406.883 170.744L404.055 167.916C404.061 167.91 404.075 167.897 404.096 167.883C404.117 167.87 404.132 167.864 404.135 167.863C404.141 167.86 404.052 167.896 403.811 167.896V171.896V175.896C405.948 175.896 408.06 175.223 409.711 173.572L406.883 170.744ZM403.811 171.896V167.896C402.757 167.896 402.343 167.687 402.247 167.625L400.099 171L397.952 174.375C399.732 175.508 401.793 175.896 403.811 175.896V171.896ZM400.099 171L402.452 167.765C401.703 167.22 400.687 166.364 399.379 165.138L396.643 168.056L393.907 170.974C395.33 172.308 396.618 173.414 397.746 174.235L400.099 171ZM396.643 168.056L399.357 165.117L370.941 138.877L368.227 141.816L365.513 144.755L393.929 170.995L396.643 168.056ZM368.227 141.816V137.816H367.971V141.816V145.816H368.227V141.816ZM367.971 141.816H363.971V166.52H367.971H371.971V141.816H367.971ZM367.971 166.52H363.971C363.971 167.719 363.678 167.88 363.797 167.758C363.933 167.618 363.831 167.896 362.723 167.896V171.896V175.896C365.114 175.896 367.636 175.278 369.521 173.346C371.389 171.432 371.971 168.905 371.971 166.52H367.971Z" fill="black" mask="url(#path-4-outside-1_175_2911)"/>
<path d="M221.981 112.829C221.458 108.119 225.145 104 229.883 104C233.935 104 237.338 107.046 237.786 111.073L240.558 136.024C240.852 138.667 240.852 141.333 240.558 143.976L237.786 168.927C237.338 172.954 233.935 176 229.883 176C225.145 176 221.458 171.881 221.981 167.171L224.638 143.256C224.879 141.092 224.879 138.908 224.638 136.744L221.981 112.829Z" fill="black"/>
<circle cx="228" cy="89" r="8" fill="black" stroke="black" stroke-width="2"/>
<path d="M261.116 175C257.574 175 254.599 172.337 254.208 168.816L251.436 143.865C251.15 141.296 251.15 138.704 251.436 136.135L254.208 111.184C254.599 107.663 257.574 105 261.116 105C265.259 105 268.483 108.601 268.025 112.719L265.368 136.633C265.12 138.87 265.12 141.13 265.368 143.367L268.025 167.281C268.483 171.399 265.259 175 261.116 175Z" stroke="black" stroke-width="2"/>
<circle cx="263" cy="89" r="8" stroke="black" stroke-width="2"/>
<path d="M261.116 174C258.084 174 255.537 171.72 255.202 168.706L252.43 143.755C252.152 141.259 252.152 138.741 252.43 136.245L255.202 111.294C255.537 108.28 258.084 106 261.116 106C264.663 106 267.423 109.083 267.031 112.608L264.374 136.522C264.117 138.833 264.117 141.167 264.374 143.478L267.031 167.392C267.423 170.917 264.663 174 261.116 174Z" stroke="black" stroke-width="4"/>
<circle cx="263" cy="89" r="6" stroke="black" stroke-width="2"/>
<circle cx="263" cy="89" r="7" stroke="black" stroke-width="2"/>
</svg>
